<svg xmlns="http://www.w3.org/2000/svg" viewBox="0 0 532.43 532.44"><g id="Layer_2" data-name="Layer 2"><g id="Layer_1-2" data-name="Layer 1"><g opacity="0.85"><path d="M388.67,4.49c-4.56,2.73-7.22,6.23-6.08,7.78,1.52,1.56-.38,2.73-4.57,3.11-6.08,0-5.7,1.17,2.28,4.67,18.25,8.94,27.38,17.12,22.44,20.62-3.42,1.95-2.66,3.51,2.67,5.45,10.64,4.28,12.92,1.17,12.92-17.12,0-11.28-2.28-18.67-6.84-22.95C403.13-1.74,400.08-1.74,388.67,4.49Z" fill="#222"/><path d="M123.6,26.66c-6.47,7.4-6.84,10.12-2.27,26.46,4.93,20.22,12.55,30.34,19.39,26.07,3.05-2,2.66-3.89-1.9-7.39-5.33-3.89-5.33-6.23-1.15-16.74,4.18-9.33,6.47-11.66,10.65-8.94,14.83,9.72,15.59-3.89,1.52-17.51C137.29,16.94,132.72,16.56,123.6,26.66Z" fill="#222"/><path d="M339.61,53.9c-10.26,10.9-12.93,11.67-57.81,15.56-26.23,2.33-48.3,4.66-49.06,5.83-1.14,1.16-4.18,0-6.84-2.33-3.42-2.72-6.09-1.56-10.65,4.67C209.17,87,210.31,92.8,218.3,92.8c6.46,0,11,16,6.08,21-4.57,4.67-4.94,29.56-.39,29.56s8.75-29.18,5.71-41.24C227,92,227.43,92,235.41,99c5.33,4.67,8,11.67,8,20.23s1.52,12.06,4.18,10.11c2.66-1.56,3.42-9.72,2.28-22.56-2.28-19.46-2.28-19.46,3-8.18,3.43,7.4,4.57,17.52,3.43,27.62-1.91,12.45-.76,16.74,3.8,18.29,3.42,1.56,6.08,1.16,6.47-.39,0-1.56,1.14-11.28,1.9-21.78,1.9-21.38,7.22-33.45,14.07-33.45,3.05,0,3.42,1.17.39,3.11-7.6,5.45-9.13,17.12-5.33,42,4.94,31.13,2.28,44.36-9.5,44.36-4.57,0-11.41,3.5-15.22,7.77-7.6,9-17.11,4.29-17.11-8.17,0-10.12-6.85-12.84-8.37-2.72-.76,4.67-3.81,8.94-6.85,10.11-4.56,1.56-4.94.78-.76-3.5,2.28-2.72,4.57-10.5,4.57-17.12,0-9.72-2.28-13.61-9.89-17.11-12.93-5.84-20.91-3.11-31.19,10.89l-8,10.9,11.79,12.45C195.49,190.84,202,194,211.46,194c7.23,0,12.93,1.56,12.93,3.89,0,5.84-16.73,4.67-28.9-1.94-11.79-6.23-20.54-7.4-20.54-3.11.39,5.45,9.51,15.17,17.12,18.67,6.84,2.73,6.84,3.51.76,4.67-11.41,3.11-7.23,10.12,4.94,8.18,8.74-1.56,11.41-.39,10.65,4.28-.76,3.51,1.14,6.23,3.8,5.84,2.28-.39,8-.78,12.17-1.17,4.56,0,7.6-3.11,7.6-7.39,0-12.85,4.57-12.45,15.59,1.56,9.5,12.06,10.26,15.17,6.47,24.12a105,105,0,0,1-10.27,17.52c-5.32,6.61-4.56,6.61,11.41,4.28,20.91-3.89,25.86-3.89,36.89,0,11.79,3.89,11-4.67-1.15-9.34-5.32-1.94-11.4-8.17-14.07-13.61-3.42-8.17-3-10.9,2.67-17.51,6.84-7.78,14.82-8.56,15.58-1.56,1.91,12.84,7.23,21,13.31,21,4.18,0,7.23,2.73,7.23,5.84s1.9,5.83,3.81,5.83a3.86,3.86,0,0,0,3.8-3.89c0-2.72,2.28-2.72,7.23,0,9.13,5.06,14.46-1.56,8-9.72-3.81-4.67-2.28-5.45,11.41-3.89,20.53,1.94,22.81,4.67,9.5,9.72-10.26,3.89-10.26,4.67-4.57,10.51,4.94,5.05,7.23,5.44,11,1.94A16.64,16.64,0,0,1,376.51,264c14.45,0,35-35,45.64-77,3.42-14,3-19.06-4.18-35-14.46-32.68-15.59-40.07-8.75-61.47,8.75-29.18,6.84-35-12.92-33.45-10.27.78-16-.39-16-3.11,0-4.67-10.26-3.89-30.42,2.33-9.51,2.72-9.51,2.72-2.28-5.45C358.63,38,351.79,40.67,339.61,53.9Zm16,19.46c-1.14,1.94-.38,3.88,1.91,3.88s3,1.56,1.9,3.89c-1.52,2.33-4.18,2-7.23-1.16-5.71-5-4.56-10.5,1.91-10.5C356.34,69.47,356.73,71,355.58,73.36Zm31.19,26.06c1.14,3.5.76,12.84-1.52,21C383,129,383,137.54,384.87,141c2.66,4.67,1.14,7-6.85,10.12-9.5,3.89-9.88,4.67-3.8,11.28,8.37,9.73,7.6,16-2.28,16-4.94,0-17.49,4.66-28.52,10.5-16,8.56-20.92,9.72-24.72,5.83-3.42-3.5-2.66-4.67,4.94-4.67,12.92,0,24.34-8.94,30-23.73,4.94-11.66,4.57-12.84-5.32-21.4-19-17.12-40.69-8.94-48.31,17.9-4.18,13.61-10.65,21-11.4,12.45-3.43-46.69-3-75.1,1.14-73.92,2.66,1.16,6.47,9.34,8.37,19.06,4.18,20.62,5.32,22.57,9.89,15.17,1.9-3.11,2.28-13.22,1.14-22.17-1.51-11.28-.76-16.73,2.28-16.73a4,4,0,0,1,4.18,3.89c0,1.94,2.28,3.89,5.33,3.89,7.6,0,10.26,10.5,3.8,15.56q-13.11,11.66,8,11.66c10.65,0,13.31-1.56,13.31-7.39,0-3.89-2.66-9.34-5.71-12.06s-5.71-6.23-5.71-8.18c0-5.83,18.25-3.89,24.35,2.73,7.6,7.39,14.82,3.5,11.79-6.62-1.91-5.83-.39-7.39,5.71-7.39C380.69,92.8,385.25,95.53,386.77,99.42Zm-36.88,58.35c-.39,7-6.85,13.62-9.14,9.34a9,9,0,0,1-.38-8.17C343,154.27,349.89,153.89,349.89,157.77ZM201.56,170.62c0,1.94-.76,3.89-1.51,3.89-1.15,0-3.05-1.95-4.18-3.89-1.15-2.33-.39-3.89,1.51-3.89A3.94,3.94,0,0,1,201.56,170.62Zm159.73,31.12a3.85,3.85,0,0,1-3.8,3.89,4.13,4.13,0,0,1-3.81-3.89,3.86,3.86,0,0,1,3.81-3.89A3.63,3.63,0,0,1,361.29,201.74Zm30,11.67c3.42,10.12,3,12.45-2.28,14.39-3.42,1.56-7.23.39-8-1.94-.76-2.73-8-4.67-16.36-4.67-14.07,0-22-7.78-8-7.78,3.42-.39,10.65-2.73,16-5.83C385.63,199.8,386.77,200.18,391.34,213.41Zm-33.85,19.06c0,4.67-8,7.39-14.07,5.05-8.37-3.1-5.33-8.55,4.56-8.55C353.31,229,357.49,230.53,357.49,232.47Z" fill="#222"/><path d="M136.91,96.69c2.28,4.29,3.05,9.72,1.91,11.67-1.15,2.33-1.15,3.89.76,3.89,3.42,0,12.55,18.67,12.55,26.07,0,2.72,2.66,3.89,5.71,2.72,6.08-2.33,6.08-17.51,0-22.17-2.28-1.56-1.91-4.28,1.9-6.23,3-2.33,4.56-4.28,3.81-5-1.15-.78-5.33-3.11-9.51-5.83-4.18-2.33-7.23-6.23-6.47-8.56.39-2.33-2.66-4.29-6.84-4.29C133.87,88.91,133.49,90.08,136.91,96.69Z" fill="#222"/><path d="M195.85,131.71c-1.14,2.33.39,5.06,3.81,6.23,7.23,3.11,11.41,0,7.6-5.83C204.23,126.65,198.9,126.65,195.85,131.71Z" fill="#222"/><path d="M140.33,169.45c-8,12.85-8.37,15.56-4.18,35,2.28,11.28,7.61,26.07,12.17,32.28,4.18,6.23,7.23,12.45,6.84,14.4-.38,1.56,3.05,11.28,7.61,21.4,8.74,18.28,25.86,34.63,41.83,39.68,11.41,3.89,11-4.67-.76-9.34C193.19,299,178,280.33,181,274.88c1.14-1.95-.39-7.78-3.81-12.85-4.57-7-4.57-9.72-1.14-10.89,2.27-1.17-1.91-4.67-9.51-8.18-11-4.67-14.45-8.56-14.45-15.55,0-11.67,3.8-22.17,7.22-20.23,1.15.78,2.28-2.33,2.28-6.61a119.5,119.5,0,0,1,3-18.68c1.9-8.56,1.14-10.9-4.94-12.45-4.94-1.16-6.84-3.89-5.33-8.17C159,149.61,149.08,155.05,140.33,169.45Z" fill="#222"/><path d="M186.35,234.81c-2.66,3.11-3,5.83-.76,5.83,1.9,0,5.71-2.72,8.37-5.83s3-5.83.76-5.83C192.82,229,189,231.69,186.35,234.81Z" fill="#222"/><path d="M214.87,244.53c-3,5.06,5.71,5.06,13.32,0,4.56-3.11,4.18-3.89-2.67-3.89C221,240.64,216,242.2,214.87,244.53Z" fill="#222"/><path d="M325.54,286.94c-12.55,9.72-16,14.39-11.79,15.17,3.42.78,8.74-.78,11.79-3.5,4.94-3.89,6.47-3.89,9.13.38,1.9,3.51,1.9,7.78-.76,10.51-5.32,6.61-3,6.23,17.49-2.73,14.07-6.61,17.49-10.12,17.49-17.51,0-10.9-10.26-13.61-13.69-3.89-1.52,3.11-4.57,5.83-7.6,5.83-6.85,0-6.85-3.5.38-11.66C358.63,267.48,344.18,272.15,325.54,286.94Z" fill="#222"/><path d="M165.44,332.07c-12.55,12.85-25.11,19.46-70.36,36.58-30.43,11.66-64.28,25.29-74.93,30L0,407.55V528.43a4,4,0,0,0,4,4H258.6v-9.72c0-5.45,1.91-9.73,4.18-9.73s3.05-2.72,1.52-7c-1.9-5.45-1.52-5.84,2.28-1.95,11.41,11.67,11.41,3.89,0-8.17-10.65-11.29-12.17-15.18-11-29.57L256.69,450l11.41,8.94,11.4,8.94-11-12.45c-10.26-11.28-9.5-18.28.76-7.77,2.66,2.72,4.57,3.11,4.57.78s-3.43-7.4-7.61-11.29c-6.46-6.23-7.6-10.12-5.32-24.89,1.14-9.73,4.18-19.84,6.08-21.79,2.67-2.72,3.05,1.95,1.52,13.61-1.52,9.34-1.52,16,0,14.4s4.94,1.94,7.6,7.77l4.18,10.9,3.05-11.28c2.28-7.78,1.14-14.39-3.42-22.57-6.47-10.89-6.47-11.28,2.28-18.67,11.79-10.12,13.31-9.73,20.15,3.89,8.37,16.33,10.65,14.39,3.81-2.73-11.41-28-19-37.74-31.95-41.62-10.26-3.11-13.7-2.73-17.49,2.72-2.28,3.5-5.71,5.45-6.84,4.28-2.67-3.11-12.56,13.62-15.59,26.07-1.52,8.18-.76,10.9,5.32,12.45,13.7,3.51,12.93,19.06-1.52,41.63-8,12.45-13.69,26.07-13.69,32.68,0,17.9-5.71,8.18-16.73-28-11-35.8-11.8-41.24-5.71-37.35,2.27,1.16,1.14-1.95-2.28-7.78-3.81-5.45-9.5-24.51-12.93-42.41l-6.08-31.9Zm116,23.35c0,1.16-1.52,5.05-3.42,8.94a81.86,81.86,0,0,0-6.09,14.39c-2.66,7-3.42,6.62-8-3.89-4.18-10.11-4.18-12.44,1.52-16.73C271.54,353.46,281.43,351.52,281.43,355.42Z" fill="#222"/><path d="M350.26,323.51c-.39,10.12-20.15,99.6-31.56,140.84l-4.18,15.55L309.58,455c-5.33-26.46-17.12-46.3-16-27.24a222.23,222.23,0,0,1,0,22.57c-.76,12.84-.76,13.23-8.38,6.23-4.18-3.89-7.6-5.05-7.6-2.73a8,8,0,0,0,3.42,6.23c4.18,2.73,9.13,23.73,9.51,44,.38,13.23-.39,15.56-4.57,12.06s-4.18-2.72-.38,5.84l4.56,10.5H528.43a4,4,0,0,0,4-4V403.67l-23.58-10.9c-13.31-6.23-46-18.68-73.39-27.62-57.81-19.06-76.44-28.78-81.38-42.41l-3.43-10.11Z" fill="#222"/><path d="M209.92,411.82c2.67,4.29,6.47,7.78,8.38,7.78s.38-3.5-3.43-7.78-7.6-7.78-8.37-7.78S207.26,407.55,209.92,411.82Z" fill="#222"/></g><path d="M50.62,500.12H50v-2.39A4.74,4.74,0,0,0,48,496a6.86,6.86,0,0,0-3-.59,5.88,5.88,0,0,0-3.67,1,3,3,0,0,0-.24,4.9,10.59,10.59,0,0,0,4.05,1.71,12.43,12.43,0,0,1,4.28,1.84A3.59,3.59,0,0,1,50.86,508a3.72,3.72,0,0,1-1.65,3.2,7,7,0,0,1-4.14,1.16,8.64,8.64,0,0,1-3.29-.64,6,6,0,0,1-2.61-2v-2.81h.63v2.55a5.28,5.28,0,0,0,2.33,1.73,8.23,8.23,0,0,0,2.94.54,6.29,6.29,0,0,0,3.7-1,3.28,3.28,0,0,0,.27-5.24A11.66,11.66,0,0,0,45,503.68a13.14,13.14,0,0,1-4.27-1.79A3.4,3.4,0,0,1,39.33,499a3.57,3.57,0,0,1,1.59-3.05A6.91,6.91,0,0,1,45,494.79a8,8,0,0,1,3.36.66,5.21,5.21,0,0,1,2.27,2Z" fill="#f3f4f6"/><path d="M66,495v3.44h-.64v-2.8H59.81v15.79h1.91v.64H57.27v-.64h1.91V495.67H53.6v2.8H53V495Z" fill="#f3f4f6"/><path d="M65.53,511.46h1.26L72.93,495h.77l6.15,16.43h1.26v.64H77.49v-.64h1.67L77.49,507H69.14l-1.66,4.46h1.67v.64H65.53Zm3.85-5.1h7.87l-3.57-9.6-.33-1h-.07l-.32,1Z" fill="#f3f4f6"/><path d="M94,495v3.44h-.63v-2.8H87.81v15.79h1.91v.64H85.27v-.64h1.91V495.67H81.6v2.8H81V495Z" fill="#f3f4f6"/><path d="M95.83,512.1v-.64h1.91V495.67H95.83V495h12.29v3.44h-.63v-2.8H98.37v7.21h7.38v.64H98.37v7.94h9.12v-2.8h.63v3.44Z" fill="#f3f4f6"/><path d="M117.47,495a6.47,6.47,0,0,1,4.15,1.17,4.48,4.48,0,0,1,.53,6,4.17,4.17,0,0,1-2.51,1.53,4.05,4.05,0,0,1,2.64,1.35,4.21,4.21,0,0,1,.79,2.64v1.72a2.64,2.64,0,0,0,.35,1.5,1.16,1.16,0,0,0,1,.49h.6v.64h-.6a1.66,1.66,0,0,1-1.57-.77,3.76,3.76,0,0,1-.43-1.88v-1.68a3.32,3.32,0,0,0-1.19-2.71,5.27,5.27,0,0,0-3.39-1h-4.61v7.38h1.91v.64h-4.45v-.64h1.91V495.68h-1.91V495h6.76Zm-4.22,8.42h4.1a5.67,5.67,0,0,0,3.85-1.1,3.85,3.85,0,0,0,0-5.67,5.83,5.83,0,0,0-3.72-1h-4.22Z" fill="#f3f4f6"/><path d="M126.51,511.46h1.25L133.9,495h.77l6.16,16.43h1.25v.64h-3.62v-.64h1.67L138.46,507h-8.34l-1.67,4.46h1.68v.64h-3.62Zm3.84-5.1h7.87l-3.57-9.6-.33-1h-.07l-.31,1Z" fill="#f3f4f6"/><path d="M143.94,512.1v-.64h1.91V495.67h-1.91V495h12.3v3.44h-.64v-2.8h-9.11v7.21h7.38v.64h-7.38v7.94h9.11v-2.8h.64v3.44Z" fill="#f3f4f6"/><path d="M391.68,495.67H390l5.49,14.76.31.93h.07l.3-.93,5.5-14.76H400V495h3.62v.64h-1.25l-6.14,16.43h-.77l-6.14-16.43h-1.26V495h3.62Z" fill="#f3f4f6"/><path d="M405.57,495.67V495H410v.64h-1.91v15.79H410v.64h-4.45v-.64h1.91V495.67Z" fill="#f3f4f6"/><path d="M428.25,495v.64h-1.91V512.1h-.64l-10.94-15.9-.07,0v15.23h1.91v.64h-4.47v-.64H414V495.67h-1.91V495h2.56l10.94,15.86.07,0V495.67h-1.91V495h4.46Z" fill="#f3f4f6"/><path d="M443.8,500.47h-.65v-2.74a5.33,5.33,0,0,0-2.1-1.68,6.79,6.79,0,0,0-3-.63,6.22,6.22,0,0,0-4.94,2.21,8.65,8.65,0,0,0-1.9,5.81v.23a8.67,8.67,0,0,0,1.89,5.82,6.06,6.06,0,0,0,4.83,2.22,7.28,7.28,0,0,0,3.06-.63,5.36,5.36,0,0,0,2.14-1.68v-2.74h.65v3a5.76,5.76,0,0,1-2.42,2,7.93,7.93,0,0,1-3.43.73,6.63,6.63,0,0,1-5.3-2.41,9.29,9.29,0,0,1-2-6.26v-.21a9.31,9.31,0,0,1,2.06-6.27,6.8,6.8,0,0,1,5.41-2.4,7.65,7.65,0,0,1,3.35.72,6.05,6.05,0,0,1,2.38,2Z" fill="#f3f4f6"/><path d="M446.45,495.67V495h4.45v.64H449v15.79h1.91v.64h-4.45v-.64h1.91V495.67Z" fill="#f3f4f6"/><path d="M466.17,495v3.44h-.64v-2.8H460v15.79h1.91v.64h-4.46v-.64h1.91V495.67h-5.57v2.8h-.64V495Z" fill="#f3f4f6"/></g></g></svg>